<svg viewBox="0 0 472.07 57.14" xmlns="http://www.w3.org/2000/svg" data-name="图层 2" id="_图层_2">
  <defs>
    <style>
      .cls-1, .cls-2 {
        fill: #f79a2a;
        stroke-width: 0px;
      }

      .cls-2 {
        fill-rule: evenodd;
      }
    </style>
  </defs>
  <g data-name="图层 1" id="_图层_1-2">
    <g>
      <path d="M405.78,51.96c-.01-.05-.02-.11-.04-.17,0-.03-.02-.06-.02-.1,0-.02-.01-.04-.02-.06-.02-.07-.05-.13-.07-.2-.09-.25-.22-.5-.39-.72-.05-.07-.1-.15-.17-.22-.76-.9-2.01-1.49-3.43-1.49h-10.98c-2.32,0-4.2-1.87-4.2-4.2v-6.44h44.54c2.16-.16,3.87-1.97,3.87-4.18v-7.91c0-6.69-5.42-12.11-12.11-12.11h-33.92c-6.69,0-12.11,5.42-12.11,12.11v18.72c0,4.58,2.54,8.56,6.29,10.63,1.73.95,3.71,1.49,5.82,1.49h12.79c1.16,0,2.21-.39,2.97-1.03.19-.15.36-.34.51-.52.23-.28.4-.59.53-.92.01-.02.02-.05.02-.08.04-.11.07-.23.1-.34.02-.07.03-.15.04-.23.02-.13.03-.26.03-.39v-1.08c0-.09,0-.17-.01-.25,0-.02,0-.01,0-.04M425.19,30.31h-38.76v-3.88c0-2.32,1.88-4.2,4.2-4.2h30.37c2.32,0,4.2,1.88,4.2,4.2v3.88Z" class="cls-2"></path>
      <path d="M302.26,26.24v26.66c0,2.32-1.88,4.2-4.2,4.2h-1.29c-2.32,0-4.2-1.87-4.2-4.2v-26.46c0-2.32-1.88-4.2-4.2-4.2h-30.36c-2.32,0-4.2,1.88-4.2,4.2v26.46c0,2.32-1.88,4.2-4.2,4.2h-1.29c-2.32,0-4.2-1.87-4.2-4.2v-26.66c0-6.67,5.41-12.08,12.08-12.08h33.98c6.67,0,12.08,5.41,12.08,12.08Z" class="cls-2"></path>
      <g>
        <path d="M234.97,28.3c-.63-2.48-1.55-4.76-2.73-6.78-1.19-2.03-2.64-3.74-4.33-5.08-1.7-1.35-3.67-2.11-5.86-2.24h-16.86v-4.6c1.91-.39,3.35-2.08,3.35-4.11v-1.29C208.54,1.88,206.66,0,204.34,0h-1.29c-2.32,0-4.2,1.88-4.2,4.2v1.29c0,2.03,1.44,3.72,3.35,4.11v4.6h-16.07c-2.29,0-4.36.67-6.17,1.99-1.8,1.31-3.35,3.02-4.61,5.08-1.26,2.06-2.24,4.37-2.89,6.88-.66,2.51-.99,5.04-.99,7.52s.32,4.89.95,7.37l.06.25h8.31l-.12-.24c-.57-1.08-.96-2.27-1.18-3.54-.23-1.39-.35-2.67-.35-3.83s.12-2.45.35-3.83c.23-1.38.68-2.66,1.32-3.81.64-1.15,1.53-2.13,2.63-2.93,1.09-.79,2.55-1.19,4.35-1.19h31.82c1.74,0,3.19.4,4.31,1.19,1.13.79,2.03,1.78,2.67,2.92.64,1.15,1.09,2.43,1.32,3.81.23,1.39.35,2.68.35,3.83s-.12,2.45-.35,3.83c-.23,1.38-.68,2.66-1.32,3.81-.64,1.15-1.54,2.13-2.67,2.92-1.12.79-2.57,1.19-4.31,1.19h-45.68l.1.23c.34.74.71,1.46,1.12,2.16,1.19,2.03,2.64,3.74,4.33,5.08,1.7,1.35,3.67,2.1,5.86,2.24h35.92c2.29,0,4.36-.67,6.17-1.99,1.8-1.31,3.35-3.02,4.61-5.08,1.26-2.05,2.24-4.37,2.89-6.88.66-2.51.99-5.04.99-7.52s-.32-4.89-.95-7.37Z" class="cls-2"></path>
        <rect ry="4.2" rx="4.2" height="9.69" width="9.69" y="31.67" x="190.19" class="cls-1"></rect>
        <rect ry="4.2" rx="4.2" height="9.69" width="9.69" y="31.76" x="207.65" class="cls-1"></rect>
      </g>
      <g>
        <rect ry="4.2" rx="4.2" height="9.69" width="9.69" y="0" x="73.65" class="cls-1"></rect>
        <rect ry="4.2" rx="4.2" height="42.94" width="9.69" y="14.1" x="73.65" class="cls-1"></rect>
      </g>
      <path d="M472.07,17.66v1.08c0,.72-.26,1.4-.72,1.96-.15.18-.32.36-.51.51-.76.64-1.81,1.03-2.97,1.03h-10.98c-2.32,0-4.2,1.88-4.2,4.2v26.48c0,1.42-.71,2.67-1.78,3.43h0c-.09.06-.17.11-.26.17-.27.16-.56.29-.86.39-.1.03-.21.06-.31.09-.1.02-.21.05-.31.06,0,0-.01,0-.01,0-.1.02-.21.03-.31.04-.02,0-.03,0-.05,0-.1,0-.2.01-.3.01h-1.29c-.87,0-1.67-.26-2.35-.71-.22-.15-.43-.32-.62-.51-.76-.76-1.23-1.81-1.23-2.97v-26.63c0-1.42.24-2.77.7-4.04,1.66-4.71,6.15-8.07,11.42-8.07h12.76c1.42,0,2.67.59,3.43,1.49.07.07.13.15.17.22.17.22.3.47.39.72.03.09.06.17.09.26.02.09.05.18.06.26h0c.02.09.03.18.04.26,0,.02,0,.03,0,.04.01.09.02.17.02.25Z" class="cls-2"></path>
      <path d="M162.55,15.1l-1.17-.55c-2.1-.98-4.6-.07-5.58,2.03l-11.53,24.72-11.51-24.69c-.03-.06-.06-.12-.1-.18-.02-.04-.04-.08-.06-.11-.04-.07-.08-.13-.12-.19-.04-.06-.08-.13-.12-.19-.03-.04-.06-.08-.08-.11-.06-.08-.13-.17-.2-.25,0-.01-.02-.02-.03-.03-.77-.85-1.87-1.38-3.11-1.38h-1.29c-.05,0-.1,0-.15,0-.06,0-.11,0-.17,0-.08,0-.17.02-.25.03-.05,0-.1.01-.15.02-.09.01-.17.03-.25.05-.05.01-.09.02-.14.04-.08.02-.16.05-.25.08-.05.02-.1.03-.15.05-.07.03-.15.06-.22.09-.06.03-.11.05-.17.08-.06.03-.12.06-.17.09-.07.04-.14.08-.2.12-.04.03-.08.05-.12.08-.08.05-.15.11-.23.17-.03.02-.05.04-.08.06-.08.07-.16.14-.24.22-.02.02-.03.03-.05.05-.08.08-.16.17-.23.25-.01.02-.03.03-.04.05-.07.09-.14.18-.2.27-.01.02-.03.04-.04.06-.06.09-.12.18-.17.28-.01.03-.03.05-.04.08-.03.06-.07.12-.1.18l-11.53,24.72-11.53-24.72c-.98-2.1-3.48-3.01-5.58-2.03l-1.17.55c-2.1.98-3.01,3.48-2.03,5.58l15.78,33.84s.01.02.02.03c.64,1.5,2.13,2.56,3.87,2.56h1.29c.05,0,.11,0,.16,0,.05,0,.11,0,.16,0,.09,0,.17-.02.26-.03.05,0,.1-.01.14-.02.09-.02.18-.03.27-.06.04-.01.09-.02.13-.03.09-.02.17-.05.26-.08.04-.02.09-.03.13-.05.08-.03.16-.06.23-.1.05-.02.1-.05.16-.08.06-.03.12-.06.19-.1.06-.04.13-.07.19-.11.05-.03.09-.06.13-.09.07-.05.15-.11.22-.16.03-.02.06-.05.09-.07.08-.07.15-.13.23-.21.02-.02.04-.04.06-.06.08-.08.15-.16.22-.24.02-.02.03-.04.05-.06.07-.08.13-.17.19-.26.02-.02.03-.05.05-.08.06-.09.11-.17.16-.27.02-.03.03-.06.05-.1.03-.06.06-.11.09-.17l11.53-24.72,11.53,24.72c.03.06.06.11.09.16.02.04.04.07.06.11.05.09.1.18.16.26.02.03.03.05.05.08.06.09.13.18.2.26.01.02.03.04.04.05.07.09.15.17.23.25.02.02.03.03.05.05.08.08.16.15.24.22.02.02.04.04.07.05.08.06.16.12.24.18.03.02.07.05.1.07.07.05.15.09.22.14.05.03.1.05.14.08.07.03.13.07.2.1.06.03.12.05.18.08.06.02.13.05.19.07.07.02.13.04.2.06.06.02.13.03.2.05.07.02.13.03.2.04.07.01.15.02.22.03.06,0,.12.01.18.02.08,0,.16.01.25.01.04,0,.07,0,.11,0h1.29s.08,0,.12,0c.07,0,.15,0,.22-.01.07,0,.14-.01.21-.02.06,0,.13-.02.19-.03.08-.01.15-.03.23-.05.06-.01.11-.03.17-.04.08-.02.15-.05.23-.07.05-.02.11-.04.16-.06.07-.03.14-.06.21-.09.06-.03.12-.05.17-.08.06-.03.12-.06.17-.09.07-.04.13-.08.19-.12.04-.03.09-.06.13-.09.07-.05.14-.1.21-.16.03-.03.06-.05.09-.08.07-.06.15-.13.22-.2.02-.02.05-.05.07-.07.07-.07.14-.15.2-.22.02-.03.04-.05.07-.08.06-.08.12-.15.18-.24.02-.04.05-.07.07-.11.05-.08.1-.15.14-.23.03-.05.05-.09.07-.14.02-.05.05-.09.07-.14l15.85-34c.98-2.1.07-4.6-2.03-5.58Z" class="cls-2"></path>
      <path d="M364.39.06h-1.29c-2.32,0-4.2,1.88-4.2,4.2v9.91h-36.34c-6.69,0-12.11,5.42-12.11,12.11v18.72c0,6.69,5.42,12.11,12.11,12.11h33.91c6.69,0,12.11-5.42,12.11-12.11V4.25c0-2.32-1.88-4.2-4.2-4.2ZM358.9,44.83c0,2.32-1.88,4.2-4.2,4.2h-30.36c-2.32,0-4.2-1.88-4.2-4.2v-18.4c0-2.32,1.88-4.2,4.2-4.2h34.56v22.6Z" class="cls-2"></path>
      <path d="M61.38,0h-1.29c-2.32,0-4.2,1.88-4.2,4.2v19.83H9.72l.02-19.68c0-2.32-1.88-4.2-4.2-4.2h-1.29C1.93.14.05,2.02.05,4.34L0,52.92c0,2.32,1.88,4.2,4.2,4.2h1.29c2.32,0,4.2-1.88,4.2-4.2l.02-20.82h46.17v20.84c0,2.32,1.88,4.2,4.2,4.2h1.29c2.32,0,4.2-1.88,4.2-4.2V4.2c0-2.32-1.88-4.2-4.2-4.2Z" class="cls-2"></path>
    </g>
  </g>
</svg>